<?xml version="1.0" encoding="UTF-8"?>
<svg version="1.1" xmlns="http://www.w3.org/2000/svg" width="321" height="332">
<path d="M0 0 C2.00780094 1.88703095 3.89629883 3.81229045 5.72265625 5.875 C13.0574083 12.71909111 21.14850552 15.75454565 30.625 18.6875 C32.99303282 19.43874686 35.36024734 20.19257891 37.7265625 20.94921875 C39.3647998 21.47201416 39.3647998 21.47201416 41.03613281 22.00537109 C44.46391227 23.15568193 47.71960393 24.48486105 51 26 C51 26.66 51 27.32 51 28 C46.21425873 30.01001133 41.66229051 31.3243053 36.5625 32.3125 C30.91260424 33.4753557 25.51621831 34.99664946 20.0625 36.875 C19.36519775 37.10743408 18.66789551 37.33986816 17.94946289 37.5793457 C10.58615815 40.19833031 4.72236697 44.01253718 0.8125 50.90625 C-0.85130684 55.19375225 0.34410297 59.04228288 1.73852539 63.2043457 C4.28993034 71.11972183 4.49241055 78.84249853 4.44604492 87.06933594 C4.43753763 89.3648472 4.46638633 91.65785799 4.49804688 93.953125 C4.58491308 112.35649286 -1.13710858 126.82575266 -14 140 C-14.95515549 141.01624295 -15.90955516 142.03319671 -16.86328125 143.05078125 C-28.75305184 155.55577495 -42.70062557 162.65789835 -59 168 C-58.07888428 168.04487549 -57.15776855 168.08975098 -56.20874023 168.13598633 C-52.71354406 168.311676 -49.21916696 168.49750441 -45.72485352 168.68969727 C-44.22701186 168.77011293 -42.72896172 168.84675503 -41.23071289 168.91918945 C-7.9582702 170.53869405 18.45547118 182.6726254 42 206 C42.71542969 206.70253906 43.43085938 207.40507812 44.16796875 208.12890625 C56.29039683 220.90119645 73.58692134 244.73674362 74.078125 262.88671875 C72.44587035 267.60014975 69.29878545 270.39967557 65.75 273.8125 C65.02490234 274.52027588 64.29980469 275.22805176 63.55273438 275.95727539 C57.46623359 281.78126577 51.22748982 286.63463012 44 291 C43.39752441 291.36641602 42.79504883 291.73283203 42.17431641 292.11035156 C1.82879345 316.41488347 -42.95334982 322.19819353 -89.3125 322.375 C-90.40462799 322.38294586 -91.49675598 322.39089172 -92.62197876 322.39907837 C-125.28327339 322.58154028 -166.73447131 320.21958168 -191.7578125 296.35546875 C-199.93863717 287.76132715 -199.93863717 287.76132715 -200.04174805 283.12133789 C-199.52125405 276.62135063 -197.52657151 270.579803 -195.4375 264.4375 C-195.08107422 263.38481934 -194.72464844 262.33213867 -194.35742188 261.24755859 C-189.77949056 248.0789662 -184.35247533 236.4984308 -175 226 C-174.40960938 225.2678125 -173.81921875 224.535625 -173.2109375 223.78125 C-158.85878754 206.43652409 -137.19611654 195.98079778 -117.8828125 185.296875 C-112.51525024 182.31587591 -107.24014239 179.19900015 -102 176 C-129.55772139 177.00721232 -157.7795619 192.90015283 -180.11645508 208.1027832 C-216.73953632 232.81842569 -216.73953632 232.81842569 -234.6953125 231.50390625 C-239.52784113 230.44730253 -243.50428867 228.49571133 -247 225 C-248.06755838 217.15468728 -247.23478489 209.74169764 -243 203 C-239.33677482 198.36174446 -235.1784483 194.17007186 -231 190 C-229.85337891 188.84951172 -229.85337891 188.84951172 -228.68359375 187.67578125 C-227.43149403 186.42858212 -226.17569789 185.1850713 -224.91455078 183.94702148 C-223.14142886 182.14382749 -221.50402004 180.289036 -219.87109375 178.359375 C-216.41474873 174.38029842 -212.71411153 170.71811954 -208.93334961 167.04931641 C-199.86051723 158.23016661 -191.8304864 149.19375708 -184.421875 138.95214844 C-177.72562164 129.75859729 -170.50401249 121.16408842 -162.70703125 112.890625 C-160.55543902 110.59310949 -158.47740159 108.27030211 -156.4375 105.875 C-150.12208086 98.5891628 -143.15665432 91.86543661 -135.828125 85.609375 C-133.97062012 83.97413566 -132.23393991 82.26518207 -130.5 80.5 C-126.83676109 76.78747985 -122.96019536 73.39071272 -119 70 C-117.97227077 69.0967926 -116.94495694 68.19311241 -115.91796875 67.2890625 C-100.68984507 54 -100.68984507 54 -95 54 C-94.98582031 53.16339844 -94.97164062 52.32679687 -94.95703125 51.46484375 C-94.20648719 33.14751172 -87.51795969 18.36155239 -74.14453125 5.765625 C-53.90487993 -12.49776407 -22.50671571 -16.91884147 0 0 Z " fill="#051925" transform="translate(247,10)"/>
<path d="M0 0 C2.8125 2.25 2.8125 2.25 5 5 C5.6084375 5.69480469 6.216875 6.38960937 6.84375 7.10546875 C11.86911765 13.05813639 11.86911765 13.05813639 12.41796875 17.0078125 C11.91698283 20.59430982 10.97892463 21.8393963 8.5 24.4375 C7.40365234 25.59572266 7.40365234 25.59572266 6.28515625 26.77734375 C4.22943918 28.77683608 2.12869551 30.6518488 -0.0625 32.5 C-4.27420439 36.08496266 -8.3348276 40.11234485 -11 45 C-10.76936332 47.38805062 -9.91205988 49.22179275 -9.02734375 51.453125 C-3.19934998 66.40955345 -5.35924322 82.85208812 -11.6875 97.375 C-14.5776141 102.54738675 -18.92127784 106.75901402 -23 111 C-23.825 111.86625 -24.65 112.7325 -25.5 113.625 C-26.325 114.40875 -27.15 115.1925 -28 116 C-28.6084375 116.59167969 -29.216875 117.18335938 -29.84375 117.79296875 C-35.99846343 123.55743767 -42.71399729 127.79952869 -50 132 C-50.91136719 132.60585937 -51.82273437 133.21171875 -52.76171875 133.8359375 C-64.32586082 140.86350458 -78.32445893 138.61111098 -91.20019531 137.06616211 C-101.59589496 135.83738965 -109.05055479 136.25726199 -119 140 C-119.70721191 140.26554688 -120.41442383 140.53109375 -121.14306641 140.8046875 C-124.96098515 142.24872356 -128.7582477 143.73876621 -132.546875 145.2578125 C-138.935714 147.79611102 -145.459198 149.89082834 -152 152 C-153.04671875 152.39574219 -154.0934375 152.79148438 -155.171875 153.19921875 C-158.12766768 154.036149 -159.16270619 153.85597522 -162 153 C-154.76668355 149.184315 -147.40485595 146.1114992 -139.75 143.25 C-137.43950192 142.37137376 -135.12961527 141.49113812 -132.8203125 140.609375 C-131.67336914 140.17173828 -130.52642578 139.73410156 -129.34472656 139.28320312 C-115.96405969 134.14971516 -102.89714038 128.69997462 -90.16650391 122.09765625 C-89.38452637 121.69289063 -88.60254883 121.288125 -87.796875 120.87109375 C-86.76578613 120.32859985 -86.76578613 120.32859985 -85.71386719 119.77514648 C-84 119 -84 119 -82 119 C-82 117.68 -82 116.36 -82 115 C-86.68018155 115.58848437 -91.34075424 116.26382967 -96 117 C-96.94488281 117.14824219 -97.88976562 117.29648438 -98.86328125 117.44921875 C-106.93259683 119.09577953 -113.99394336 122.70042996 -121.33862305 126.296875 C-127.44199159 129.28547038 -133.499805 131.97823953 -140 134 C-140.68191406 134.22171875 -141.36382812 134.4434375 -142.06640625 134.671875 C-145.24112592 135.65279047 -147.62642767 136 -151 136 C-151 135.34 -151 134.68 -151 134 C-145.79947472 131.41166517 -140.62881475 129.15906901 -135.09765625 127.390625 C-123.23589003 123.89991809 -123.23589003 123.89991809 -113.91796875 116.18359375 C-111.36800454 113.28047767 -108.45006327 111.07249442 -105.375 108.75 C-104.56591187 108.13161255 -104.56591187 108.13161255 -103.74047852 107.50073242 C-93.82113637 100 -93.82113637 100 -91 100 C-91 99.01 -91 98.02 -91 97 C-100.38105543 94.45598497 -106.12351174 97.59513069 -114.16015625 101.984375 C-118.57876942 104.38558127 -123.10625961 105.87067529 -128 107 C-125.68940777 102.70643314 -122.71641829 99.40976313 -119.29296875 95.9921875 C-118.73112381 95.42605743 -118.16927887 94.85992737 -117.59040833 94.27664185 C-116.39851568 93.07901999 -115.2040121 91.88399164 -114.00708008 90.69140625 C-112.22260565 88.91004442 -110.45175454 87.11592953 -108.68164062 85.3203125 C-89.58065627 66.1143019 -70.90351027 51.71639307 -43 51 C-47.50638355 46.34340366 -50.27446863 45.79486385 -56.625 45.4375 C-57.68460938 45.37272461 -57.68460938 45.37272461 -58.765625 45.30664062 C-60.51018537 45.20055249 -62.25506697 45.09977111 -64 45 C-65.16229525 31.74983412 -59.41840144 19.65521308 -51.07421875 9.703125 C-37.52773871 -5.05684229 -17.83456639 -10.26838671 0 0 Z " fill="#F58116" transform="translate(232,19)"/>
<path d="M0 0 C2.91796875 1.3203125 2.91796875 1.3203125 6.1875 3.125 C11.81872931 6.11106065 17.50755026 8.38898142 23.5625 10.375 C24.32393311 10.62523926 25.08536621 10.87547852 25.86987305 11.13330078 C43.18974632 16.67365815 61.64462505 13.80428864 79.375 11.625 C81.28503643 11.40002209 83.19519293 11.17606113 85.10546875 10.953125 C90.40716824 10.32918684 95.70460339 9.67525554 101 9 C101.72175415 8.90827515 102.4435083 8.81655029 103.18713379 8.7220459 C111.05068968 7.71857061 111.05068968 7.71857061 118.75390625 5.9140625 C123.14292789 4.67816471 127.3983804 4.54068649 131.9375 4.375 C132.81212891 4.33632812 133.68675781 4.29765625 134.58789062 4.2578125 C136.72494631 4.1643893 138.86244294 4.08114602 141 4 C138.30880233 6.69119767 136.120675 6.80289866 132.40234375 7.5859375 C131.74106476 7.72763367 131.07978577 7.86932983 130.39846802 8.01531982 C128.2461735 8.4752336 126.09189579 8.92504275 123.9375 9.375 C121.71677658 9.8471259 119.49662928 10.32189184 117.27653503 10.79696655 C115.82033808 11.10850667 114.36396859 11.41924143 112.90742493 11.72915649 C107.93986781 12.78839566 102.99594793 13.91837714 98.0625 15.125 C60.49379037 24.08280127 31.16804229 25.70439618 -6 15 C2.24653042 26.04581139 15.7467964 30.55390092 28.94921875 32.6171875 C56.54382784 35.59731153 84.66546663 28.30282062 111.67077637 23.42041016 C113.21809375 23.14112914 114.7657008 22.86344807 116.31359863 22.58740234 C118.49375132 22.19813559 120.67276361 21.80301514 122.8515625 21.40625 C124.08986816 21.18259766 125.32817383 20.95894531 126.60400391 20.72851562 C130.00252356 20.06666735 130.00252356 20.06666735 133.20458984 18.91992188 C136.5708476 17.81214378 139.47966794 17.85918672 143 18 C140.1066759 20.37176271 137.49693655 21.71478151 133.95703125 22.90234375 C132.97404053 23.23331055 131.9910498 23.56427734 130.97827148 23.90527344 C129.93356689 24.2459082 128.8888623 24.58654297 127.8125 24.9375 C126.73621338 25.29231445 125.65992676 25.64712891 124.55102539 26.01269531 C117.05429312 28.44068726 109.56065125 30.47055673 101.86328125 32.13671875 C98.0704549 32.98425629 94.36251591 33.99975586 90.625 35.0625 C62.20035459 42.59279873 27.45058359 44.26687127 -0.21875 32.6484375 C-3.19816313 30.88254938 -4.45530294 29.48627846 -6.25 26.5625 C-6.72953125 25.80066406 -7.2090625 25.03882813 -7.703125 24.25390625 C-10.77092811 18.92221228 -11.84972924 15.19088444 -11 9 C-8.80662811 2.83372807 -7.03663427 -0.65688524 0 0 Z " fill="#EE7E16" transform="translate(107,230)"/>
<path d="M0 0 C1.26602051 -0.00241699 1.26602051 -0.00241699 2.55761719 -0.00488281 C17.82848396 0.26598396 17.82848396 0.26598396 21.9375 4.375 C20.28646852 6.02603148 18.19586463 5.73912344 15.97460938 5.96923828 C1.57229992 7.46640859 -10.56783828 10.74989576 -23.3984375 17.48046875 C-33.51898854 22.77936311 -43.88922666 24.64595887 -55.0625 26.375 C-53.73211551 26.7199145 -52.39792939 27.05016582 -51.0625 27.375 C-50.32 27.560625 -49.5775 27.74625 -48.8125 27.9375 C-41.24084871 29.14208089 -35.04459053 27.82554882 -27.75 25.875 C-20.43561366 24.01172672 -13.66084161 22.574238 -6.0625 23.375 C-6.0625 24.035 -6.0625 24.695 -6.0625 25.375 C-36.52681613 38.52961042 -36.52681613 38.52961042 -53.375 38.625 C-54.27412109 38.645625 -55.17324219 38.66625 -56.09960938 38.6875 C-63.04590736 38.72768104 -69.64228085 38.01516917 -75.2890625 33.65625 C-75.75054687 33.0684375 -76.21203125 32.480625 -76.6875 31.875 C-77.17476563 31.2871875 -77.66203125 30.699375 -78.1640625 30.09375 C-78.46054688 29.5265625 -78.75703125 28.959375 -79.0625 28.375 C-78.5675 26.89 -78.5675 26.89 -78.0625 25.375 C-74.84798731 23.76774365 -71.62637464 24.31751815 -68.0625 24.375 C-68.7225 22.725 -69.3825 21.075 -70.0625 19.375 C-58.94926187 10.81957065 -45.75792384 7.77461509 -32.31298828 4.87646484 C-30.03007043 4.36777388 -27.76450619 3.80791661 -25.49609375 3.23828125 C-16.95436354 1.16416797 -8.80560239 0.01568508 0 0 Z " fill="#F17F16" transform="translate(198.0625,194.625)"/>
<path d="M0 0 C5.36138832 4.6240054 6.68969665 12.02293118 7.39453125 18.78515625 C7.84293324 35.64174959 3.78793113 50.33203943 -7.83984375 62.75390625 C-8.55269531 63.49511719 -9.26554687 64.23632812 -10 65 C-10.825 65.86625 -11.65 66.7325 -12.5 67.625 C-13.7375 68.800625 -13.7375 68.800625 -15 70 C-15.6084375 70.59167969 -16.216875 71.18335938 -16.84375 71.79296875 C-22.99846343 77.55743767 -29.71399729 81.79952869 -37 86 C-37.91136719 86.60585937 -38.82273438 87.21171875 -39.76171875 87.8359375 C-52.92086513 95.83279393 -72.41108525 92.8202914 -87 90 C-87.99 89.34 -88.98 88.68 -90 88 C-85.26628252 85.85274671 -80.35775573 84.87776842 -75.3125 83.75 C-59.29987005 80.00588467 -45.33670349 75.8425856 -32 66 C-31.02417969 65.2884375 -30.04835937 64.576875 -29.04296875 63.84375 C-15.64563829 53.50063614 -3.68495578 38.20538929 -1 21 C-0.81448365 17.88774561 -0.85232324 14.80290439 -0.9375 11.6875 C-1.11930956 3.35792868 -1.11930956 3.35792868 0 0 Z " fill="#C04A0A" transform="translate(219,65)"/>
<path d="M0 0 C4.33022059 0.45896347 6.06884215 2.99472665 8.875 6.125 C30.94063728 29.21859768 71.49596596 27.56898755 101 29 C101.495 29.99 101.495 29.99 102 31 C93.4028294 33.67885048 85.439146 34.42104026 76.4543457 34.28125 C74.43617066 34.2499794 72.41878486 34.24024456 70.40039062 34.234375 C59.0252965 34.14476323 48.14878379 33.21792781 37 31 C35.32550781 30.70996094 35.32550781 30.70996094 33.6171875 30.4140625 C23.30216882 28.48708099 12.8954636 25.40384626 6 17 C5.278125 16.154375 4.55625 15.30875 3.8125 14.4375 C0.02463006 9.34346802 -0.2094846 6.28453813 0 0 Z " fill="#ED7D16" transform="translate(83,253)"/>
<path d="M0 0 C1.828125 2.171875 1.828125 2.171875 3 4 C2.03449219 3.84273437 1.06898438 3.68546875 0.07421875 3.5234375 C-12.21201153 1.78898349 -23.98482279 1.73931444 -35 8 C-36.0725 8.598125 -37.145 9.19625 -38.25 9.8125 C-49.21526375 18.53486889 -54.99174014 27.31107026 -57.45703125 41.19140625 C-58 44 -58 44 -59 45 C-60.66617115 45.04063832 -62.33388095 45.042721 -64 45 C-65.16229525 31.74983412 -59.41840144 19.65521308 -51.07421875 9.703125 C-37.89280375 -4.65907489 -17.41770243 -10.81491327 0 0 Z " fill="#F9F3CF" transform="translate(232,19)"/>
<path d="M0 0 C2.81550299 1.29344689 4.41749659 2.38903091 6.75 4.5625 C10.4581018 7.82210568 14.53256135 10.20618619 18.8125 12.625 C19.78944824 13.18296265 19.78944824 13.18296265 20.78613281 13.75219727 C29.13089891 18.37756429 37.46920725 21.46445422 46.875 23.0625 C47.79104004 23.22459961 48.70708008 23.38669922 49.65087891 23.55371094 C62.01937072 25.64283068 74.51883741 26.8092274 87 28 C86.67 28.66 86.34 29.32 86 30 C70.63041278 33.39586289 51.51257344 33.03607822 36.96191406 26.83007812 C34.7527596 25.89539356 32.5175153 25.05038804 30.2734375 24.203125 C6.00058399 14.79359528 6.00058399 14.79359528 0 5 C-0.1875 2.25 -0.1875 2.25 0 0 Z " fill="#E57A17" transform="translate(77,274)"/>
<path d="M0 0 C-2.06445608 3.09668413 -2.55012796 3.49458362 -5.7890625 4.796875 C-6.55718262 5.11213135 -7.32530273 5.4273877 -8.11669922 5.75219727 C-8.94443848 6.08147217 -9.77217773 6.41074707 -10.625 6.75 C-12.37031682 7.46095174 -14.11510152 8.17321107 -15.859375 8.88671875 C-16.73142578 9.24169434 -17.60347656 9.59666992 -18.50195312 9.96240234 C-21.35979374 11.14944521 -24.17276583 12.41814615 -26.98681641 13.70458984 C-46.73585581 22.67771171 -70.03424379 31.63652157 -92 30 C-91.505 28.515 -91.505 28.515 -91 27 C-89.75089844 26.8040625 -88.50179687 26.608125 -87.21484375 26.40625 C-73.1678779 24.05688402 -60.30201335 20.00975706 -47 15 C-45.46804459 14.42663089 -43.93597305 13.85357199 -42.40380859 13.28076172 C-34.08761416 10.16903949 -25.77876265 7.03806937 -17.48046875 3.87890625 C-16.75445969 3.60320297 -16.02845062 3.32749969 -15.28044128 3.04344177 C-9.45504723 0.82001732 -6.24365789 -0.10070416 0 0 Z " fill="#E87B16" transform="translate(286,253)"/>
<path d="M0 0 C0 0.99 0 1.98 0 3 C-10.5165567 6.97329715 -21.14100949 10.11395392 -32 13 C-33.00861084 13.26876953 -33.00861084 13.26876953 -34.03759766 13.54296875 C-37.15747946 14.37389597 -40.27792942 15.20267826 -43.3984375 16.03125 C-50.96674219 18.06697621 -58.53429069 20.10702434 -65.9375 22.6875 C-72.58536033 24.94018195 -79.05005896 25.14183553 -86 25 C-86 24.01 -86 23.02 -86 22 C-84.34291016 21.79697266 -84.34291016 21.79697266 -82.65234375 21.58984375 C-70.42304826 19.95250442 -59.06038417 16.81405232 -47.33251953 13.05175781 C-43.6265043 11.88212312 -39.90772539 10.75863876 -36.18359375 9.6484375 C-35.51537094 9.44922699 -34.84714813 9.25001648 -34.15867615 9.04476929 C-32.14762056 8.44594042 -30.13634119 7.84786882 -28.125 7.25 C-17.39001029 4.06931955 -17.39001029 4.06931955 -6.77124023 0.52514648 C-4.47369929 -0.15604036 -2.37731536 -0.23006278 0 0 Z " fill="#DC7617" transform="translate(144,163)"/>
<path d="M0 0 C3.965646 0.08847242 5.43419001 0.2785604 8.875 2.4375 C11.37903078 6.58210267 11.29712884 8.63667285 10.6875 13.4375 C9.6875 15.9375 9.6875 15.9375 7.6875 17.4375 C2.73392956 18.08714858 0.66171017 17.96888737 -3.75 15.5625 C-6.3125 13.4375 -6.3125 13.4375 -7.3125 11.4375 C-7.43255453 9.94100638 -7.48781451 8.43875207 -7.5 6.9375 C-7.51417969 6.1434375 -7.52835938 5.349375 -7.54296875 4.53125 C-7.03584642 -0.07582742 -3.90147407 0.08974974 0 0 Z " fill="#091B25" transform="translate(220.3125,27.5625)"/>
<path d="M0 0 C-5.33303909 11.75870082 -18.41774525 17.44565547 -29.75 22.0625 C-33 23 -33 23 -36 22 C-11.94972261 -1.08633842 -11.94972261 -1.08633842 0 0 Z " fill="#EC7D16" transform="translate(56,199)"/>
<path d="M0 0 C-8.23556061 9.28519088 -24.5066179 10.1553011 -36 12 C-36.7434668 12.12004395 -37.48693359 12.24008789 -38.25292969 12.36376953 C-45.86240365 13.56066522 -53.29517693 14.32632192 -61 14 C-57.66245885 11.77497257 -54.72337062 11.15443911 -50.875 10.375 C-44.4564234 9.02429986 -38.07920009 7.54515104 -31.71484375 5.9609375 C-30.98610046 5.78037811 -30.25735718 5.59981873 -29.50653076 5.41378784 C-26.53871411 4.67811781 -23.57106255 3.9422386 -20.6071167 3.19110107 C-18.49632551 2.6566145 -16.38322609 2.13224208 -14.26953125 1.609375 C-13.03823486 1.29967773 -11.80693848 0.98998047 -10.53833008 0.67089844 C-6.93954204 -0.01146336 -3.65358909 -0.12066362 0 0 Z " fill="#E67A17" transform="translate(239,297)"/>
<path d="M0 0 C0.66 0.33 1.32 0.66 2 1 C1.13375 1.83144531 1.13375 1.83144531 0.25 2.6796875 C-0.4925 3.40414062 -1.235 4.12859375 -2 4.875 C-2.7425 5.59429687 -3.485 6.31359375 -4.25 7.0546875 C-6.22293325 8.81170957 -6.22293325 8.81170957 -6 11 C-32.07865169 22 -32.07865169 22 -39 22 C-39 21.34 -39 20.68 -39 20 C-33.79947472 17.41166517 -28.62881475 15.15906901 -23.09765625 13.390625 C-9.84876287 9.38435881 -9.84876287 9.38435881 0 0 Z " fill="#DF7717" transform="translate(120,133)"/>
<path d="M0 0 C-0.33 0.33 -0.66 0.66 -1 1 C-0.34 1.66 0.32 2.32 1 3 C-14.8203125 8.2734375 -14.8203125 8.2734375 -17.55175781 9.17480469 C-19.52489471 9.8398628 -21.48060751 10.55649257 -23.4296875 11.2890625 C-26.11750859 12.03250238 -27.4260463 11.98998219 -30 11 C-23.6930374 7.56127918 -17.17244346 4.76227963 -10.5 2.125 C-9.69836426 1.80265381 -8.89672852 1.48030762 -8.07080078 1.14819336 C-2.23925781 -1.11962891 -2.23925781 -1.11962891 0 0 Z " fill="#DE7617" transform="translate(100,161)"/>
<path d="M0 0 C0 0.66 0 1.32 0 2 C-5.70690634 2.99250545 -11.21408489 3.10477512 -17 3 C-13.91770957 0.94513971 -12.08786572 0.45387922 -8.5 -0.1875 C-7.5409375 -0.36667969 -6.581875 -0.54585938 -5.59375 -0.73046875 C-3 -1 -3 -1 0 0 Z " fill="#CF7018" transform="translate(195,308)"/>
<path d="M0 0 C-2.52480693 2.52480693 -4.13823034 2.55738633 -7.625 3.125 C-8.62789062 3.29257813 -9.63078125 3.46015625 -10.6640625 3.6328125 C-11.43492187 3.75398437 -12.20578125 3.87515625 -13 4 C-12.67 3.01 -12.34 2.02 -12 1 C-8.32433144 -0.61729417 -3.92760325 -0.06546005 0 0 Z " fill="#CF7018" transform="translate(248,234)"/>
<path d="M0 0 C3 1 3 1 4 3 C-0.455 3.495 -0.455 3.495 -5 4 C-2 1 -2 1 0 0 Z " fill="#C36B18" transform="translate(75,169)"/>
<path d="M0 0 C0.66 0.33 1.32 0.66 2 1 C1.67 1.33 1.34 1.66 1 2 C1.66 2.66 2.32 3.32 3 4 C1.02 4.33 -0.96 4.66 -3 5 C-3 3.68 -3 2.36 -3 1 C-2.01 0.67 -1.02 0.34 0 0 Z " fill="#BE6918" transform="translate(98,160)"/>
</svg>
