<?xml version="1.0" encoding="UTF-8"?>
<!DOCTYPE svg PUBLIC "-//W3C//DTD SVG 1.1//EN" "http://www.w3.org/Graphics/SVG/1.1/DTD/svg11.dtd">
<svg xmlns="http://www.w3.org/2000/svg" version="1.1" width="288px" height="69px" style="shape-rendering:geometricPrecision; text-rendering:geometricPrecision; image-rendering:optimizeQuality; fill-rule:evenodd; clip-rule:evenodd" xmlns:xlink="http://www.w3.org/1999/xlink">
<g><path style="opacity:1" fill="#34415f" d="M -0.5,-0.5 C 95.5,-0.5 191.5,-0.5 287.5,-0.5C 287.5,22.5 287.5,45.5 287.5,68.5C 191.5,68.5 95.5,68.5 -0.5,68.5C -0.5,45.5 -0.5,22.5 -0.5,-0.5 Z"/></g>
<g><path style="opacity:1" fill="#fcfbfc" d="M 25.5,2.5 C 48.5099,1.67482 59.0099,12.6748 57,35.5C 55.6865,38.6243 54.5198,41.791 53.5,45C 53.8646,47.2605 54.5313,49.4272 55.5,51.5C 55.2907,52.086 54.9574,52.586 54.5,53C 44.2532,53.7267 33.9199,54.0601 23.5,54C 7.22411,46.1864 2.05744,33.6864 8,16.5C 12.3107,9.78173 18.144,5.11506 25.5,2.5 Z"/></g>
<g><path style="opacity:1" fill="#fcfcfc" d="M 71.5,7.5 C 74.1667,7.5 76.8333,7.5 79.5,7.5C 79.5,19.1667 79.5,30.8333 79.5,42.5C 85.8333,42.5 92.1667,42.5 98.5,42.5C 98.5,44.8333 98.5,47.1667 98.5,49.5C 89.5,49.5 80.5,49.5 71.5,49.5C 71.5,35.5 71.5,21.5 71.5,7.5 Z"/></g>
<g><path style="opacity:1" fill="#f7f8f9" d="M 184.5,7.5 C 187.167,7.5 189.833,7.5 192.5,7.5C 192.5,21.5 192.5,35.5 192.5,49.5C 190.167,49.5 187.833,49.5 185.5,49.5C 185.657,48.1266 185.49,46.7932 185,45.5C 177.292,52.5787 170.292,51.9121 164,43.5C 160.297,34.1266 162.463,26.6266 170.5,21C 175.399,19.8753 179.899,20.7086 184,23.5C 184.499,18.1771 184.666,12.8437 184.5,7.5 Z"/></g>
<g><path style="opacity:1" fill="#f8f9fa" d="M 195.5,7.5 C 198.167,7.5 200.833,7.5 203.5,7.5C 203.334,13.1764 203.501,18.8431 204,24.5C 212.231,18.3495 219.231,19.6828 225,28.5C 225.826,33.5893 225.492,38.5893 224,43.5C 220.373,49.1579 215.207,51.3246 208.5,50C 206.376,48.8783 204.543,47.3783 203,45.5C 202.51,46.7932 202.343,48.1266 202.5,49.5C 200.167,49.5 197.833,49.5 195.5,49.5C 195.5,35.5 195.5,21.5 195.5,7.5 Z"/></g>
<g><path style="opacity:1" fill="#f6f7f8" d="M 264.5,11.5 C 266.833,11.5 269.167,11.5 271.5,11.5C 271.19,14.7131 271.523,17.7131 272.5,20.5C 275.167,20.5 277.833,20.5 280.5,20.5C 280.5,22.8333 280.5,25.1667 280.5,27.5C 277.833,27.5 275.167,27.5 272.5,27.5C 272.334,32.1785 272.501,36.8452 273,41.5C 274.789,43.229 276.956,43.8957 279.5,43.5C 280.186,49.6664 277.519,51.833 271.5,50C 266.935,47.9439 264.602,44.4439 264.5,39.5C 264.5,35.1667 264.5,30.8333 264.5,26.5C 262.833,26.5 261.167,26.5 259.5,26.5C 259.5,24.5 259.5,22.5 259.5,20.5C 261.167,20.5 262.833,20.5 264.5,20.5C 264.5,17.5 264.5,14.5 264.5,11.5 Z"/></g>
<g><path style="opacity:1" fill="#a2a7b5" d="M 264.5,11.5 C 266.948,10.5269 269.615,10.1936 272.5,10.5C 272.5,13.8333 272.5,17.1667 272.5,20.5C 271.523,17.7131 271.19,14.7131 271.5,11.5C 269.167,11.5 266.833,11.5 264.5,11.5 Z"/></g>
<g><path style="opacity:1" fill="#ef5282" d="M 28.5,12.5 C 41.9799,13.4636 46.1466,20.1303 41,32.5C 32.0987,38.9411 25.0987,37.2744 20,27.5C 19.2191,20.3901 22.0524,15.3901 28.5,12.5 Z"/></g>
<g><path style="opacity:1" fill="#f8f4f6" d="M 28.5,16.5 C 37.2069,16.0365 40.7069,20.0365 39,28.5C 36.3981,32.2118 32.8981,33.3785 28.5,32C 24.1392,29.7742 22.6392,26.2742 24,21.5C 25.0591,19.3408 26.5591,17.6741 28.5,16.5 Z"/></g>
<g><path style="opacity:1" fill="#3c4865" d="M 28.5,20.5 C 36.5432,20.0028 38.2099,22.8361 33.5,29C 31.2992,29.8249 29.4659,29.3249 28,27.5C 27.2967,25.0709 27.4634,22.7375 28.5,20.5 Z"/></g>
<g><path style="opacity:1" fill="#f8f8f9" d="M 108.5,20.5 C 113.765,19.5706 118.265,20.9039 122,24.5C 122.49,23.2068 122.657,21.8734 122.5,20.5C 124.833,20.5 127.167,20.5 129.5,20.5C 129.5,30.1667 129.5,39.8333 129.5,49.5C 127.167,49.5 124.833,49.5 122.5,49.5C 122.657,48.1266 122.49,46.7932 122,45.5C 118.65,50.0834 114.15,51.5834 108.5,50C 99.2861,43.7723 97.1194,35.6056 102,25.5C 103.965,23.4497 106.132,21.783 108.5,20.5 Z"/></g>
<g><path style="opacity:1" fill="#f5f6f7" d="M 140.5,20.5 C 144.936,20.2101 149.27,20.7101 153.5,22C 156,23.1667 157.833,25 159,27.5C 159.5,34.8258 159.666,42.1591 159.5,49.5C 156.833,49.5 154.167,49.5 151.5,49.5C 151.666,42.825 151.5,36.1583 151,29.5C 148.503,27.5218 145.669,27.0218 142.5,28C 141.874,28.7504 141.374,29.5838 141,30.5C 140.5,36.8246 140.334,43.1579 140.5,49.5C 137.833,49.5 135.167,49.5 132.5,49.5C 132.104,41.747 132.604,34.0804 134,26.5C 136.063,24.2659 138.229,22.2659 140.5,20.5 Z"/></g>
<g><path style="opacity:1" fill="#f6f6f8" d="M 237.5,20.5 C 255.27,19.7559 261.437,27.7559 256,44.5C 245.838,53.2969 236.838,52.2969 229,41.5C 225.883,32.0044 228.717,25.0044 237.5,20.5 Z"/></g>
<g><path style="opacity:1" fill="#384462" d="M 110.5,27.5 C 121.777,27.2235 124.777,32.0569 119.5,42C 110.372,44.5436 106.538,41.0436 108,31.5C 108.662,30.0161 109.496,28.6828 110.5,27.5 Z"/></g>
<g><path style="opacity:1" fill="#364260" d="M 173.5,27.5 C 182.778,26.3759 186.278,30.3759 184,39.5C 179.489,44.7566 175.156,44.7566 171,39.5C 169.773,34.938 170.607,30.938 173.5,27.5 Z"/></g>
<g><path style="opacity:1" fill="#384461" d="M 207.5,27.5 C 216.981,27.1528 220.147,31.4861 217,40.5C 211.785,45.0192 207.451,44.3525 204,38.5C 202.663,33.8721 203.83,30.2054 207.5,27.5 Z"/></g>
<g><path style="opacity:1" fill="#364360" d="M 239.5,27.5 C 248.751,26.2997 252.251,30.2997 250,39.5C 246.042,44.4361 241.709,44.7695 237,40.5C 234.409,35.3611 235.242,31.0278 239.5,27.5 Z"/></g>
<g><path style="opacity:1" fill="#767f93" d="M 259.5,20.5 C 259.5,22.5 259.5,24.5 259.5,26.5C 261.167,26.5 262.833,26.5 264.5,26.5C 264.5,30.8333 264.5,35.1667 264.5,39.5C 263.517,35.7016 263.183,31.7016 263.5,27.5C 261.833,27.5 260.167,27.5 258.5,27.5C 258.198,24.9407 258.532,22.6074 259.5,20.5 Z"/></g>
<g><path style="opacity:1" fill="#49536f" d="M 27.5,40.5 C 29.9926,41.7465 32.4926,41.7465 35,40.5C 38.2988,42.1273 38.1322,43.6273 34.5,45C 31.1074,46.1675 28.4408,45.3342 26.5,42.5C 26.8627,41.8165 27.1961,41.1499 27.5,40.5 Z"/></g>
</svg>
